<svg xmlns="http://www.w3.org/2000/svg" viewBox="0 0 445.67 53.32" style="enable-background:new 0 0 445.67 53.32" xml:space="preserve">
  <path class="st0" d="M84.67 22.14 47.53 1.89C45.35.7 42.75.7 40.57 1.89L3.44 22.14c-1.53.83-2.44 2.4-2.44 4.2 0 1.8.91 3.38 2.44 4.21L40.58 50.8c1.07.58 2.27.89 3.48.89s2.41-.31 3.48-.89l37.14-20.25c1.53-.83 2.44-2.4 2.44-4.21-.01-1.8-.92-3.37-2.45-4.2zM44.06 40.93c-16.59 0-29.95-7.98-29.95-14.59 0-6.61 13.36-14.59 29.95-14.59s29.95 7.98 29.95 14.59c0 6.61-13.36 14.59-29.95 14.59zM143.18 33.42 127.47 4.78h-18.78v43.13h12.67l-.39-29.22 16.78 29.22h10.47l17.09-29.22-.64 29.22h12.8V4.78h-18.65zM229.8 21.66c-2.2-.13-8.02-.32-9.18-.32h-13.24c-4.27-.06-4.53-.13-5.3-.32-1.88-.45-2.78-1.62-2.78-3.43 0-2.46 1.16-3.36 4.65-3.62 2.07-.13 8.71-.26 12.92-.26 8.47 0 9.76.52 9.76 4.27h13.82c0-6.47-.97-9.12-3.94-11.12-3.1-2-7.62-2.39-22.74-2.39-9.44 0-15.5.32-18.99 1.23-6.21 1.49-9.42 4.78-9.42 12.54 0 5.88 1.42 9.31 4.53 10.93 2.78 1.42 7.1 1.87 15.05 1.87h12.92c6.79.06 6.79.06 8.21.52 1.36.45 2.2 1.75 2.2 3.49 0 3.56-2.83 4.01-18.02 4.01-4.14 0-7.82-.26-8.79-.65-1.55-.58-1.88-1.29-2-4.27h-13.89c-.06.91-.06 1.75-.06 2.13 0 5.11 1.36 8.4 4.01 9.7 3.81 1.94 8.13 2.26 23.07 2.26 9.37 0 16.79-.39 20.03-1.1 6.34-1.36 9.68-4.85 9.68-12.8-.03-8.66-4.28-12.29-12.5-12.67zM288.2 36.91c-1.81.78-4.25.84-14.02.84-12.61 0-13.58-.78-13.58-11.12 0-6.98.32-8.73 1.88-10.15 1.62-1.42 3.56-1.68 14.29-1.68 11.38 0 13.37.39 13.63 5.11h14.58v-1.42c0-6.34-1.62-10.15-5.11-11.9-3.69-1.81-10.24-2.13-26.34-2.13-12.09 0-16.23.58-20.11 2.84-4.53 2.59-5.82 6.66-5.82 18.04 0 12.8 1.23 17.33 5.5 20.04 3.49 2.26 7.5 2.84 19.91 2.84 8.6 0 14.79-.06 17.44-.32 6.72-.45 12.26-2.2 13.94-5.88.91-1.94 1.1-4.07 1.16-10.34h-14.78c.02 3.1-.69 4.46-2.57 5.23zM423.31 23.14h-34.09v-8.59h35.77V4.78h-48.83v43.13h13.06v-15h34.09zM355.93 20.75h-30.89V4.78h-13.12v43.13h13.12V31.42h30.89v16.49h13.13V4.78h-13.13zM444.46 40.16c-.62-5.59-5.29-9.8-10.88-9.8-.42 0-.83.02-1.25.08-6.01.69-10.36 6.12-9.69 12.13.63 5.56 5.3 9.75 10.88 9.75.4 0 .81-.02 1.22-.07 2.93-.32 5.54-1.76 7.38-4.04 1.84-2.28 2.66-5.15 2.34-8.05zm-4.02 6.71c-1.48 1.84-3.58 3-5.94 3.25-.33.04-.66.06-.99.06-4.48 0-8.23-3.38-8.75-7.85-.53-4.83 2.97-9.21 7.82-9.76.32-.04.66-.05 1-.05 4.49 0 8.25 3.38 8.74 7.88.27 2.33-.4 4.63-1.88 6.47z"/>
  <path class="st0" d="M438.29 38.98c0-1.06-.35-1.93-1.04-2.6-.71-.67-1.78-.99-3.21-.99h-5.22v11.93h2.59v-4.68h2.43l1.76 4.68h2.78l-2.05-5.16c1.29-.62 1.96-1.69 1.96-3.18zm-2.95 1.27c-.36.32-.92.47-1.64.47h-2.56v-3.43h2.71c.65 0 1.14.15 1.5.46.36.31.53.71.53 1.22 0 .54-.17.96-.54 1.28z"/>
</svg>
